<?xml version="1.0" encoding="utf-8"?>
<!-- Svg Vector Icons : http://www.onlinewebfonts.com/icon -->
<!DOCTYPE svg PUBLIC "-//W3C//DTD SVG 1.1//EN" "http://www.w3.org/Graphics/SVG/1.1/DTD/svg11.dtd">
<svg version="1.1" xmlns="http://www.w3.org/2000/svg" xmlns:xlink="http://www.w3.org/1999/xlink" x="0px" y="0px" viewBox="0 0 1000 1000" enable-background="new 0 0 1000 1000" xml:space="preserve">
<metadata> Svg Vector Icons : http://www.onlinewebfonts.com/icon </metadata>
<g><g transform="translate(0.000000,511.000000) scale(0.100000,-0.100000)"><path d="M2732.9,2432.6c-520.4-744.8-950-1365.4-957.2-1379.7c-4.8-14.3,112.2-114.6,262.6-219.6l274.5-191L3270,2010.1c525.1,754.3,957.2,1374.9,957.2,1379.7c0,7.2-121.7,97.9-272.1,202.9l-274.5,191L2732.9,2432.6z"/><path d="M5349.1,3585.5c-138.4-95.5-250.6-183.8-250.6-195.7c0-9.5,186.2-291.2,412.9-620.6l412.9-603.9l167.1,143.2c90.7,78.8,210.1,171.9,262.6,207.7c54.9,35.8,90.7,76.4,83.5,93.1c-28.6,76.4-787.7,1155.3-811.6,1152.9C5611.7,3762.1,5487.5,3681,5349.1,3585.5z"/><path d="M7318.4,2559.1C6182.2,2308.4,5451.7,1191.3,5678.5,50.3c83.6-417.7,245.9-723.2,551.4-1045.5c446.4-465.5,1002.5-685.1,1656.6-651.7c1628,81.2,2556.5,1902.5,1670.9,3275c-291.2,446.4-751.9,778.2-1267.5,909.5c-183.8,47.7-281.7,57.3-527.5,54.9C7597.7,2590.1,7397.1,2575.8,7318.4,2559.1z M8070.3,1162.7V780.8h381.9h381.9V470.4V160.1h-381.9h-381.9v-381.9v-381.9h-296h-293.6L7464-493.9c-7.2,62.1-14.3,233.9-14.3,381.9v272.1h-381.9h-381.9v310.3v310.3h381.9h381.9v381.9v381.9H7760h310.3V1162.7z"/><path d="M257.6,363C169.3,212.7,97.7,81.4,100.1,71.8c0-9.6,62.1-62.1,138.4-117c81.2-57.3,174.3-152.8,229.2-236.3c54.9-83.6,343.7-747.1,742.4-1704.3l649.3-1565.9l2780.9-7.1l2780.9-4.8l47.7,112.2c43,102.6,570.5,1367.8,592,1427.4c7.2,14.3-121.7,23.9-358.1,23.9l-365.2,2.4l-179-432.1l-179-429.7H4644.9H2308l-551.4,1324.8C1453.5-806.6,1179-162.1,1148-102.4C1054.9,79,921.2,262.8,799.4,375C677.7,489.5,472.4,637.5,439,637.5C427.1,637.5,345.9,513.4,257.6,363z"/><path d="M2174.4-21.3c-374.8-162.3-465.5-656.4-171.9-940.5c222-212.4,541.9-224.4,768.6-28.6C2912-871.1,2971.6-744.5,2971.6-556c0,112.2-14.3,183.8-52.5,253C2857.1-178.8,2694.7-38,2582.6-7C2458.4,26.4,2269.9,21.7,2174.4-21.3z"/><path d="M3628.1-49.9c-296-152.8-398.6-544.3-214.8-818.8c305.5-453.5,1009.7-274.5,1047.9,267.4C4494.6-140.6,4036.2,162.5,3628.1-49.9z"/><path d="M5146.2-40.4C5017.3-100,4907.5-209.9,4855-334c-40.6-102.6-40.6-338.9,4.8-444c117-281.7,432-415.3,735.2-312.7c159.9,54.9,174.2,81.1,97.9,191C5580.6-735,5427.9-396,5373-186c-31,112.2-66.8,202.9-81.2,202.9C5277.5,16.9,5210.7-9.4,5146.2-40.4z"/><path d="M3050.4-1417.7c-136.1-31-217.2-81.2-307.9-188.6c-186.2-214.8-186.2-525.1,0-740c119.4-140.8,245.9-200.5,434.4-200.5c513.2,0,763.8,599.1,405.8,966.7c-78.8,83.5-140.8,121.7-236.3,150.4C3203.2-1386.7,3181.7-1386.7,3050.4-1417.7z"/><path d="M4482.6-1424.8c-444-121.7-558.6-725.7-191-1007.4c341.3-260.2,816.4-83.5,916.6,343.8C5301.4-1689.8,4890.8-1312.7,4482.6-1424.8z"/><path d="M5926.8-1436.8c-241.1-83.5-384.3-284.1-386.7-534.7c0-331.8,241.1-575.3,572.9-575.3c386.7,0,651.7,353.3,549,728c-19.1,64.4-45.4,95.5-100.3,119.4c-40.6,16.7-159.9,93.1-262.6,169.5c-102.6,76.4-200.5,138.4-217.2,138.4C6067.6-1393.8,5996-1412.9,5926.8-1436.8z"/></g></g>
</svg>